# xmcd
#
# Track frame offsets:
#	150
#	14692
#	28817
#	46092
#	59957
#	74335
#	94620
#	108867
#	119235
#	132185
#	148562
#	161402
#	179272
#	192955
#
# Disc length: 2735 seconds
#
# Revision: 1
# Processed by: cddbd v1.5PL3 Copyright (c) Steve Scherf et al.
# Submitted via: CDex 1.50Beta5
#
DISCID=cd0aad0e
DTITLE=Various Artist - BEST想い出のヒット・パレード
DYEAR=1994
DGENRE=Pop
TTITLE0=GARO/学生街の喫茶店
TTITLE1=トワ・エ・モワ/或る日突然
TTITLE2=ビリーバンバン/白いブランコ
TTITLE3=ビリーバンバン/さよならをするために
TTITLE4=荒木一郎/空に星があるように
TTITLE5=小坂明子/あなた
TTITLE6=新谷のり子/フランシーヌの場合
TTITLE7=青い三角定規/太陽がくれた季節
TTITLE8=伊東きよ子/花と小父さん
TTITLE9=ペドロ&カプリシャス/ジョニィへの伝言
TTITLE10=タイガース/シーサイドバウンド
TTITLE11=タイガース/花の首飾り
TTITLE12=ワイルドワンズ/想い出の渚
TTITLE13=ジャッキー吉川/ブルー・シャトウ
EXTD=
EXTT0=
EXTT1=
EXTT2=
EXTT3=
EXTT4=
EXTT5=
EXTT6=
EXTT7=
EXTT8=
EXTT9=
EXTT10=
EXTT11=
EXTT12=
EXTT13=
PLAYORDER=
